<?xml version="1.0" encoding="iso-8859-1"?>
<!-- Generator: Adobe Illustrator 18.0.0, SVG Export Plug-In . SVG Version: 6.00 Build 0)  -->
<!DOCTYPE svg PUBLIC "-//W3C//DTD SVG 1.1//EN" "http://www.w3.org/Graphics/SVG/1.1/DTD/svg11.dtd">
<svg version="1.1" id="Capa_1" xmlns="http://www.w3.org/2000/svg" xmlns:xlink="http://www.w3.org/1999/xlink" x="0px" y="0px"
	 viewBox="0 0 373.656 373.656" style="enable-background:new 0 0 373.656 373.656;" xml:space="preserve">
<g>
	<polygon points="162.131,113.113 162.131,275.543 192.131,275.543 192.131,207.933 259.738,140.327 238.525,119.114 
		192.131,165.508 192.131,113.113 	"/>
	<path d="M369.261,176.222L197.434,4.394c-5.857-5.858-15.354-5.858-21.213,0L4.394,176.222c-5.858,5.858-5.858,15.355,0,21.213
		l171.827,171.827c2.929,2.929,6.768,4.393,10.606,4.393c3.839,0,7.678-1.464,10.606-4.393l171.827-171.827
		C375.12,191.576,375.12,182.079,369.261,176.222z M186.827,337.442L36.212,186.828L186.827,36.214l150.614,150.614L186.827,337.442
		z"/>
</g>
<g>
</g>
<g>
</g>
<g>
</g>
<g>
</g>
<g>
</g>
<g>
</g>
<g>
</g>
<g>
</g>
<g>
</g>
<g>
</g>
<g>
</g>
<g>
</g>
<g>
</g>
<g>
</g>
<g>
</g>
</svg>
